<?xml version="1.0" encoding="utf-8"?>
<!-- Generator: Adobe Illustrator 23.0.2, SVG Export Plug-In . SVG Version: 6.00 Build 0)  -->
<svg version="1.1" id="Calque_1" xmlns="http://www.w3.org/2000/svg" xmlns:xlink="http://www.w3.org/1999/xlink" x="0px" y="0px"
	 viewBox="0 0 1920 1080" style="enable-background:new 0 0 1920 1080;" xml:space="preserve">
<style type="text/css">
	.st0{fill:#F4C121;}
	.st1{clip-path:url(#sun_2_);fill:#F29E22;}
	.st2{clip-path:url(#sun_2_);fill:#EF7F25;}
	.st3{clip-path:url(#sun_2_);fill:#FFFC92;}
	.st4{opacity:0.6;fill:#FFFFFF;}
	.st5{display:none;}
	.st6{display:inline;opacity:0.3;fill:none;stroke:#FFFFFF;stroke-miterlimit:10;}
	.st7{display:inline;fill:#457DA0;}
	.st8{display:inline;}
	.st9{clip-path:url(#neptune-planet_2_);fill:#E1FFFF;}
	.st10{fill:#E1FFFF;}
	.st11{fill:#3F636D;}
	.st12{display:inline;opacity:0.6;fill:#FFFFFF;}
	.st13{display:inline;fill:#E1FFFF;}
	.st14{display:inline;fill:#5AD6E0;}
	.st15{clip-path:url(#uranus-planet_2_);fill:#73ECEF;}
	.st16{display:inline;fill:#6D5D41;}
	.st17{display:inline;fill:#99835F;}
	.st18{display:inline;fill:#D8CA8B;}
	.st19{clip-path:url(#saturne-planet_2_);fill:#82784E;}
	.st20{clip-path:url(#saturne-planet_2_);fill:#BCAF75;}
	.st21{clip-path:url(#saturne-planet_2_);fill:#EADBA0;}
	.st22{display:inline;fill:#E27959;}
	.st23{clip-path:url(#jupiter-planet_2_);fill:#FF9B73;}
	.st24{clip-path:url(#jupiter-planet_2_);fill:#D3674F;}
	.st25{fill:#D3674F;}
	.st26{fill:#FF9B73;}
	.st27{display:inline;fill:#DD5B5B;}
	.st28{fill:#894343;}
	.st29{opacity:0.5;fill:none;stroke:#FFFFFF;stroke-miterlimit:10;}
	.st30{fill:#3386FF;}
	.st31{fill:#80E5C8;}
	.st32{fill:#D8CA8B;}
	.st33{fill:#EFDEA8;}
	.st34{fill:#B7AC7D;}
	.st35{fill:#827850;}
	.st36{fill:#728DA0;}
	.st37{fill:#586B72;}
</style>
<rect id="background" width="1920" height="1080"/>
<g id="sun">
	<circle id="sun_1_" class="st0" cx="960" cy="540" r="75"/>
	<g id="sun-marks">
		<defs>
			<circle id="sun_3_" cx="960" cy="540" r="75"/>
		</defs>
		<clipPath id="sun_2_">
			<use xlink:href="#sun_3_"  style="overflow:visible;"/>
		</clipPath>
		<path class="st1" d="M1035,509c0,0-17.33,0-18.67,20c0,0,1.67,15-7.33,19.25c0,0-14.25,2.5-15.5,8.25s3.25,34.75,36.5,32.25
			S1035,509,1035,509z"/>
		<path class="st1" d="M918,493.25c0,0,34.25-9,40,5.75s-9.75,12.25-13.25,18.25c0,0-5.5,10,5.75,14.25c0,0,19.5,25.25-19.5,18.5
			c0,0-24.75-6-20.25-14.5c0,0,11.25-8,10.25-16.5c0,0-31.5-12.5-36-4.25s3.25-21.5,3.25-21.5S904.21,495.61,918,493.25z"/>
		<path class="st2" d="M937.25,570.75c0,0,4.25-5.5,7.75-2s2,3.5,0,4.25s-2.52,5,1.61,5.75s2.64,8.5-2.86,7
			S928.75,578.75,937.25,570.75z"/>
		<path class="st2" d="M987.75,487.75c5.57-5-9.75-3.94-10.25,2.78s9.5,18.97,3.5,19.72s-11.25,0.5-7,7.5s21.75-3.5,22-8.75
			S982.18,492.75,987.75,487.75z"/>
		<path class="st2" d="M908,533.25c5.25-2,16-0.5,15.25,4.5s-4.22,2.95-7.61,6.35c-3.39,3.4-8.64,10.19-16.14,7.05
			S902.75,535.25,908,533.25z"/>
		<path class="st1" d="M947,595.35c11.5,4.4,1.98,7.94,1.98,7.94s16.27,4.71,9.02,6.96s-32.5-4.44-30.25-10.47
			C930,593.75,947,595.35,947,595.35z"/>
		<path class="st2" d="M989,553.5c-0.75,3.29-11.5,15.17-2.25,14.08s25.75-4.33,25.75-8.83s-6.5-6.1-13.5-9.8
			c-7-3.7-21.75-4.3-18.5,0C983.75,553.25,989.75,550.21,989,553.5z"/>
		<ellipse class="st2" cx="945.13" cy="490.8" rx="6.88" ry="4.2"/>
		<ellipse class="st2" cx="983.5" cy="587.52" rx="2.25" ry="3.27"/>
		<circle class="st2" cx="1021.13" cy="510.63" r="2.88"/>
		<ellipse class="st1" cx="910" cy="570.67" rx="5.25" ry="3.08"/>
		<circle class="st3" cx="967.23" cy="544.48" r="4.48"/>
		<ellipse class="st3" cx="946.08" cy="513.56" rx="4.67" ry="2.94"/>
		<ellipse class="st3" cx="967" cy="576.21" rx="2.75" ry="5.54"/>
		<ellipse class="st3" cx="970.73" cy="582.97" rx="0.98" ry="2.97"/>
		<ellipse class="st3" cx="965.83" cy="469.89" rx="12.42" ry="4.61"/>
		<path class="st3" d="M900.5,482.25c0,0,14.01,6.84,10.75,11.8c-3.25,4.95,1.25,14.45-8.75,9.7S892.25,488,892.25,488L900.5,482.25
			z"/>
	</g>
	<path id="sun-highlight-ring" class="st4" d="M960,465c-41.42,0-75,33.58-75,75c0,41.42,33.58,75,75,75s75-33.58,75-75
		C1035,498.58,1001.42,465,960,465z M960,612.5c-40.04,0-72.5-32.46-72.5-72.5s32.46-72.5,72.5-72.5s72.5,32.46,72.5,72.5
		S1000.04,612.5,960,612.5z"/>
</g>
<g id="neptune" class="st5">
	<ellipse id="neptune-orbit" class="st6" cx="960" cy="540" rx="895" ry="486.49"/>
	<circle id="neptune-planet" class="st7" cx="1656.34" cy="843.22" r="20"/>
	<g id="neptune-marks" class="st8">
		<g>
			<defs>
				<circle id="neptune-planet_1_" cx="1656.34" cy="843.22" r="20"/>
			</defs>
			<clipPath id="neptune-planet_2_">
				<use xlink:href="#neptune_x002D_planet_1_"  style="overflow:visible;"/>
			</clipPath>
			<path class="st9" d="M1614.84,835.34l30.91-0.46l0.08,0.99c0,0,0.94-0.72-9.82,1.62c-7.06,1.54-16.42,10.16-19.94,11.63
				c-8.91,3.71-2.38-13.69-2.38-13.69L1614.84,835.34z"/>
			<path class="st9" d="M1698.39,848.34l-30.91-0.46l-0.05,0.67c0,0,6.14-0.24,8.92,2.44c2.78,2.69,17.29,9.65,20.82,11.13
				c8.91,3.71,2.38-13.69,2.38-13.69L1698.39,848.34z"/>
		</g>
		<ellipse class="st10" cx="1654.34" cy="838.47" rx="1.53" ry="0.59"/>
		<ellipse class="st10" cx="1653.69" cy="850.56" rx="1.63" ry="0.63"/>
		<ellipse class="st10" cx="1659.06" cy="849.47" rx="0.94" ry="0.47"/>
		<circle class="st10" cx="1646.16" cy="855.22" r="0.47"/>
		<ellipse class="st11" cx="1653.77" cy="848.63" rx="2.58" ry="1.31"/>
	</g>
	<path id="neptune-highlight-ring" class="st12" d="M1656.34,823.22c-11.05,0-20,8.95-20,20c0,11.05,8.95,20,20,20
		c11.05,0,20-8.95,20-20C1676.34,832.17,1667.39,823.22,1656.34,823.22z M1656.34,862.22c-10.49,0-19-8.51-19-19s8.51-19,19-19
		s19,8.51,19,19S1666.84,862.22,1656.34,862.22z"/>
</g>
<g id="uranus" class="st5">
	<ellipse id="uranus-orbit" class="st6" cx="960" cy="540" rx="780" ry="423.98"/>
	<path class="st13" d="M1563.71,774.05c-6.28,0.82-9.04,16.03-6.16,33.96c2.87,17.93,10.29,31.8,16.56,30.97
		c6.28-0.82,9.04-16.03,6.16-33.96S1569.98,773.22,1563.71,774.05z M1573.82,837.17c-5.93,0.78-12.93-12.32-15.64-29.25
		c-2.71-16.93-0.11-31.29,5.82-32.07c5.93-0.78,12.93,12.32,15.64,29.25C1582.35,822.04,1579.74,836.4,1573.82,837.17z"/>
	<circle id="uranus-planet" class="st14" cx="1568.87" cy="806.51" r="25"/>
	<g id="uranus-marks" class="st8">
		<g>
			<defs>
				<circle id="uranus-planet_1_" cx="1568.87" cy="806.51" r="25"/>
			</defs>
			<clipPath id="uranus-planet_2_">
				<use xlink:href="#uranus_x002D_planet_1_"  style="overflow:visible;"/>
			</clipPath>
			<path class="st15" d="M1551.88,784c0,0,2.39,9.57,2.5,22.56c0.06,6.87-0.21,14.69-2.5,22.56l-21.13-25.5L1551.88,784z"/>
			<path class="st15" d="M1554.72,783.88c0,0,1.84,9.23,1.9,22.47c0.03,6.76,0.19,15.66-1.9,22.66h1.4c0,0,2.64-8.17,2.56-22.66
				c-0.03-6.44-1.02-13.08-2.56-22.58"/>
			<path class="st15" d="M1586,787.01c0,0,5.16,19.99-0.33,38.99h0.63c0,0,3.56-4.92,2.78-22.29c-0.23-5.18-0.55-8.38-1.65-16.42
				L1586,787.01z"/>
		</g>
		<ellipse class="st10" cx="1581.17" cy="794.46" rx="1" ry="1.79"/>
		<ellipse class="st10" cx="1583" cy="797.75" rx="0.42" ry="1.08"/>
	</g>
	<path id="urnus_highlight_ring" class="st12" d="M1568.87,781.51c-13.81,0-25,11.19-25,25c0,13.81,11.19,25,25,25s25-11.19,25-25
		C1593.87,792.71,1582.68,781.51,1568.87,781.51z M1568.87,830.6c-13.31,0-24.09-10.79-24.09-24.09s10.79-24.09,24.09-24.09
		s24.09,10.79,24.09,24.09S1582.18,830.6,1568.87,830.6z"/>
	<path class="st13" d="M1563.64,774.06c-0.03,0-0.05,0.01-0.08,0.02l0.29,1.8c0.03,0,0.05-0.01,0.08-0.02
		c5.93-0.78,12.93,12.32,15.64,29.25s0.11,31.29-5.82,32.07c-0.03,0-0.06,0-0.08,0l0.29,1.8c0.03,0,0.06,0,0.08,0
		c6.28-0.82,9.04-16.03,6.16-33.96C1577.33,787.1,1569.91,773.23,1563.64,774.06z"/>
</g>
<g id="saturne" class="st5">
	<ellipse id="saturne-orbit" class="st6" cx="958" cy="543" rx="665" ry="361.47"/>
	<path class="st16" d="M1476.58,747.6c-28.67,5.42-50.15,19.2-47.96,30.77c2.19,11.57,27.21,16.56,55.88,11.13
		c28.67-5.42,50.15-19.2,47.96-30.77C1530.27,747.16,1505.25,742.18,1476.58,747.6z M1484.04,787.03
		c-25.3,4.78-47.38,0.39-49.31-9.82c-1.93-10.21,17.02-22.36,42.32-27.15s47.38-0.39,49.31,9.82S1509.34,782.25,1484.04,787.03z"/>
	<path class="st17" d="M1477.14,750.56c-24.63,4.66-43.07,16.49-41.19,26.42s23.37,14.22,47.99,9.56
		c24.63-4.66,43.07-16.49,41.19-26.42C1523.25,750.18,1501.76,745.9,1477.14,750.56z M1483.54,784.42
		c-21.73,4.11-40.69,0.33-42.35-8.44c-1.66-8.77,14.61-19.21,36.34-23.32c21.73-4.11,40.69-0.33,42.35,8.44
		C1521.54,769.88,1505.27,780.32,1483.54,784.42z"/>
	
		<ellipse id="saturne-planet" transform="matrix(0.7068 -0.7074 0.7074 0.7068 -108.0791 1271.676)" class="st18" cx="1480.08" cy="766.22" rx="32.79" ry="32.19"/>
	<g class="st8">
		<defs>
			
				<ellipse id="saturne-planet_1_" transform="matrix(0.4758 -0.8795 0.8795 0.4758 101.897 1703.4222)" cx="1480.08" cy="766.22" rx="32.85" ry="32.13"/>
		</defs>
		<clipPath id="saturne-planet_2_">
			<use xlink:href="#saturne_x002D_planet_1_"  style="overflow:visible;"/>
		</clipPath>
		
			<rect x="1438.93" y="746.84" transform="matrix(0.9582 -0.286 0.286 0.9582 -152.5035 453.0666)" class="st19" width="72" height="3.65"/>
		
			<rect x="1442.74" y="760.2" transform="matrix(0.9582 -0.286 0.286 0.9582 -155.9981 454.6906)" class="st20" width="72" height="2.48"/>
		
			<rect x="1444.16" y="764.37" transform="matrix(0.9582 -0.286 0.286 0.9582 -157.2985 455.295)" class="st21" width="72" height="3.65"/>
		
			<rect x="1445.53" y="767.82" transform="matrix(0.9582 -0.286 0.286 0.9582 -158.5538 455.8784)" class="st20" width="72" height="5.93"/>
		
			<rect x="1447.05" y="775.26" transform="matrix(0.9582 -0.286 0.286 0.9582 -160.0294 456.5361)" class="st19" width="72" height="1.82"/>
		
			<rect x="1449.84" y="783.45" transform="matrix(0.9582 -0.286 0.286 0.9582 -162.504 457.7142)" class="st20" width="72" height="3.56"/>
		
			<rect x="1450.61" y="786.9" transform="matrix(0.9582 -0.286 0.286 0.9582 -163.2099 458.0422)" class="st21" width="72" height="1.82"/>
	</g>
	<path class="st12" d="M1508.93,750.74c-8.26-15.78-27.87-21.64-43.8-13.09s-22.15,28.27-13.89,44.05
		c8.26,15.78,27.87,21.64,43.8,13.09C1510.96,786.24,1517.19,766.52,1508.93,750.74z M1494.34,793.47
		c-15.2,8.16-33.9,2.57-41.78-12.48s-1.94-33.86,13.25-42.02c15.2-8.16,33.9-2.57,41.78,12.48
		C1515.47,766.5,1509.54,785.32,1494.34,793.47z"/>
	<path class="st16" d="M1526.33,759.8c0.01,0.03,0.02,0.05,0.02,0.08c1.93,10.21-17.02,22.36-42.32,27.15
		c-25.3,4.78-47.38,0.39-49.31-9.82c-0.01-0.03-0.01-0.06-0.01-0.08l-6.11,1.15c0.01,0.03,0.01,0.06,0.01,0.08
		c2.19,11.57,27.21,16.56,55.88,11.13c28.67-5.42,50.15-19.2,47.96-30.77c-0.01-0.03-0.02-0.05-0.02-0.08L1526.33,759.8z"/>
	<path class="st17" d="M1519.86,761.03c0.01,0.03,0.02,0.05,0.02,0.08c1.66,8.77-14.61,19.21-36.34,23.32
		c-21.73,4.11-40.69,0.33-42.35-8.44c-0.01-0.03-0.01-0.06-0.01-0.08l-5.25,0.99c0,0.03,0.01,0.06,0.01,0.08
		c1.88,9.94,23.37,14.22,47.99,9.56c24.63-4.66,43.07-16.49,41.19-26.42c-0.01-0.03-0.02-0.05-0.02-0.08L1519.86,761.03z"/>
</g>
<g id="jupiter" class="st5">
	<ellipse id="jupiter-orbit" class="st6" cx="960" cy="540" rx="550" ry="298.96"/>
	<circle id="jupiter-planet" class="st22" cx="1383.92" cy="726.1" r="40"/>
	<g id="jupiter-marks" class="st8">
		<g>
			<defs>
				<circle id="jupiter-planet_1_" cx="1383.92" cy="726.1" r="40"/>
			</defs>
			<clipPath id="jupiter-planet_2_">
				<use xlink:href="#jupiter_x002D_planet_1_"  style="overflow:visible;"/>
			</clipPath>
			<path class="st23" d="M1344.84,705.34l39-0.58l0.03,1.11c0,0-30.73,2.76-39.64,6.47s-0.55-6.92-0.55-6.92L1344.84,705.34z"/>
			<path class="st23" d="M1428.88,716.13l-47.06-3.88c0,0-10.81-0.5-47.81,7.25v3.5c0,0,35.69-5.59,47.5-5.34s14.5-1.16,47.38,2.84
				S1428.88,716.13,1428.88,716.13z"/>
			<path class="st23" d="M1404.95,729.75c1.98-0.06,34.98-1.11,34.98-1.11l0.1,2.5c0,0-30.93,0.15-39.97,3.5
				C1391.01,737.99,1402.97,729.81,1404.95,729.75z"/>
			<path class="st24" d="M1341.44,734.35l28.52-0.73l0.16,0.8c0,0-22.59,2.28-29.08,5.06c-6.49,2.79-0.46-5.06-0.46-5.06
				L1341.44,734.35z"/>
			<path class="st23" d="M1419.88,746.11c0,0-11.5,2.89-23.88,0.52c0,0-9.13-3.57-11.88-5.88s-15.75-5.13-19.88,3.63
				c0,0-6.38,10.38,13.25,10.75c0,0,5.35,1.18,42.38-5.53S1419.88,746.11,1419.88,746.11z"/>
			<path class="st24" d="M1422.74,744.35l-28.52-0.73l-0.16,0.8c0,0,29.7,0.79,29.08,5.06c-0.63,4.27,0.46-5.06,0.46-5.06
				L1422.74,744.35z"/>
		</g>
		<ellipse class="st25" cx="1387.56" cy="711" rx="3.31" ry="1.75"/>
		<ellipse class="st25" cx="1397.91" cy="715.13" rx="1.66" ry="0.88"/>
		<ellipse class="st25" cx="1380.46" cy="747" rx="5.21" ry="2.75"/>
		<ellipse class="st26" cx="1411.63" cy="725.33" rx="2.38" ry="1.08"/>
		<ellipse class="st26" cx="1384.59" cy="757.81" rx="3.34" ry="1.56"/>
	</g>
	<path id="jupiter_highlight_ring" class="st12" d="M1383.92,686.1c-22.09,0-40,17.91-40,40s17.91,40,40,40c22.09,0,40-17.91,40-40
		S1406.01,686.1,1383.92,686.1z M1383.92,764.6c-21.26,0-38.5-17.24-38.5-38.5s17.24-38.5,38.5-38.5s38.5,17.24,38.5,38.5
		S1405.18,764.6,1383.92,764.6z"/>
</g>
<g id="mars" class="st5">
	<ellipse id="mars-orbit" class="st6" cx="960" cy="540" rx="400" ry="217.43"/>
	<circle id="mars-planet" class="st27" cx="1271.22" cy="674.62" r="12.5"/>
	<g id="mars-marks" class="st8">
		<ellipse class="st28" cx="1269.17" cy="676.04" rx="3.5" ry="2.71"/>
		<ellipse class="st28" cx="1275.33" cy="669.25" rx="1.17" ry="0.67"/>
		<circle class="st28" cx="1267.13" cy="667.21" r="0.71"/>
		<ellipse class="st28" cx="1272.92" cy="679.58" rx="0.83" ry="0.5"/>
		<circle class="st28" cx="1279.64" cy="673.98" r="0.64"/>
		<circle class="st28" cx="1269.75" cy="684.5" r="0.58"/>
	</g>
	<path class="st12" d="M1271.22,662.12c-6.9,0-12.5,5.6-12.5,12.5s5.6,12.5,12.5,12.5s12.5-5.6,12.5-12.5
		S1278.12,662.12,1271.22,662.12z M1271.22,686.12c-6.35,0-11.5-5.15-11.5-11.5c0-6.35,5.15-11.5,11.5-11.5
		c6.35,0,11.5,5.15,11.5,11.5C1282.72,680.97,1277.57,686.12,1271.22,686.12z"/>
</g>
<g id="earth">
	<ellipse id="earth-orbit" class="st29" cx="960" cy="540" rx="325" ry="176.66"/>
	<g id="earth-planet_2_">
		<circle id="earth-planet" class="st30" cx="1212.86" cy="649.38" r="15"/>
		<g id="earth-marks">
			<path class="st31" d="M1227.86,649.38c0-4.02-1.59-7.65-4.16-10.35c-2.04,0.21-4.46,0.91-6.34,2.83c-4,4.09-1.42,7.57,0.53,8.98
				s3.29-0.36,4.71,2.58c1.42,2.93-0.71,2.67-3.02,5.51c-1.04,1.28-0.51,2.63,0.12,3.78
				C1224.55,660.23,1227.86,655.19,1227.86,649.38z"/>
			<path class="st31" d="M1201.15,658.73c3.28-1.63,6.03-5.99,5.9-7.62c-0.18-2.31-3.82-2.67-0.89-6.58
				c1.89-2.52-1.15-4.77-3.56-6.07c-2.91,2.74-4.74,6.61-4.74,10.92C1197.86,652.92,1199.1,656.17,1201.15,658.73z"/>
			<path class="st31" d="M1205.99,662.7c2.06,1.06,4.39,1.68,6.87,1.68c0.12,0,0.25-0.02,0.37-0.02
				C1211.07,659.73,1207.92,661.15,1205.99,662.7z"/>
		</g>
		<path id="earth-highlight-ring" class="st4" d="M1212.86,634.38c-8.28,0-15,6.72-15,15c0,8.28,6.72,15,15,15c8.28,0,15-6.72,15-15
			C1227.86,641.1,1221.15,634.38,1212.86,634.38z M1212.86,663.38c-7.73,0-14-6.27-14-14c0-7.73,6.27-14,14-14c7.73,0,14,6.27,14,14
			C1226.86,657.11,1220.59,663.38,1212.86,663.38z"/>
	</g>
</g>
<g id="venus">
	<ellipse id="venus-orbit" class="st29" cx="960" cy="540" rx="250" ry="135.89"/>
	<g id="venus-planet">
		<circle id="venus-body" class="st32" cx="1154.51" cy="624.14" r="15"/>
		<g id="venus-marks">
			<path class="st33" d="M1149.15,617.72c-0.41,0-0.75-0.2-0.75-0.45c0-0.01,0.01-0.02,0.01-0.04c-2.28-0.22-4.78-0.65-6.63-1.01
				c-0.22,0.35-0.43,0.71-0.62,1.08c3.17,0.92,6.32,1.51,11.25,1.59c5.5,0.09,13.06-2.84,14.37-3.36c-0.16-0.23-0.34-0.46-0.51-0.69
				c-2.83,1.46-10.23,2.18-14.06,2.5c-0.67,0.06-1.48,0.05-2.34,0C1149.81,617.56,1149.52,617.72,1149.15,617.72z"/>
			<path class="st33" d="M1167.58,631.48c0.28-0.5,0.54-1.01,0.76-1.54c-5.96,0.74-18.08,1.95-27.23,0.92
				c0.26,0.51,0.54,1.01,0.85,1.49C1150.56,633.2,1161.5,632.2,1167.58,631.48z"/>
			<path class="st34" d="M1168.34,629.94c0.75-1.79,1.17-3.75,1.17-5.8c0-1.59-0.25-3.12-0.71-4.56c-4.72,3.98-8.37,4.29-13.68,6.19
				c-4.28,1.53-12.17-0.27-15.58-1.18c0.07,2.25,0.63,4.38,1.58,6.27C1150.27,631.89,1162.38,630.68,1168.34,629.94z
				 M1154.49,629.17c-0.71,0-1.29-0.35-1.29-0.77s0.58-0.78,1.29-0.78s1.29,0.35,1.29,0.78S1155.2,629.17,1154.49,629.17z
				 M1162.04,629.72c-0.24,0-0.44-0.2-0.44-0.45s0.2-0.45,0.44-0.45c0.24,0,0.44,0.2,0.44,0.45S1162.28,629.72,1162.04,629.72z
				 M1164.75,626.12c-0.41,0-0.75-0.2-0.75-0.45c0-0.25,0.34-0.45,0.75-0.45c0.41,0,0.75,0.2,0.75,0.45
				C1165.5,625.92,1165.16,626.12,1164.75,626.12z"/>
			<path class="st35" d="M1148.4,617.27c0,0.25,0.34,0.45,0.75,0.45c0.37,0,0.66-0.16,0.73-0.38c0.01-0.02,0.02-0.05,0.02-0.07
				c0-0.25-0.34-0.45-0.75-0.45c-0.39,0-0.7,0.18-0.74,0.41C1148.41,617.25,1148.4,617.26,1148.4,617.27z"/>
			<path class="st35" d="M1164.75,625.22c-0.41,0-0.75,0.2-0.75,0.45c0,0.25,0.34,0.45,0.75,0.45c0.41,0,0.75-0.2,0.75-0.45
				C1165.5,625.42,1165.16,625.22,1164.75,625.22z"/>
			<path class="st35" d="M1154.49,627.62c-0.71,0-1.29,0.35-1.29,0.78s0.58,0.77,1.29,0.77s1.29-0.35,1.29-0.77
				S1155.2,627.62,1154.49,627.62z"/>
			<ellipse class="st35" cx="1162.04" cy="629.27" rx="0.44" ry="0.45"/>
		</g>
		<path id="venus-highlight-ring" class="st4" d="M1154.51,609.14c-8.28,0-15,6.72-15,15c0,8.28,6.72,15,15,15c8.28,0,15-6.72,15-15
			C1169.51,615.85,1162.79,609.14,1154.51,609.14z M1154.51,638.15c-7.74,0-14.01-6.27-14.01-14.01c0-7.74,6.27-14.01,14.01-14.01
			c7.74,0,14.01,6.27,14.01,14.01C1168.52,631.88,1162.25,638.15,1154.51,638.15z"/>
	</g>
</g>
<g id="mercury">
	<ellipse id="mercury-orbit" class="st29" cx="960" cy="540" rx="175" ry="95.12"/>
	<g id="mercury-planet">
		<circle id="mercury-body" class="st36" cx="1098.2" cy="599.78" r="9"/>
		<g id="mercury-marks">
			<circle class="st37" cx="1093.48" cy="604.06" r="0.77"/>
			<circle class="st37" cx="1102.48" cy="605.06" r="0.77"/>
			<circle class="st37" cx="1098.48" cy="594.06" r="0.77"/>
			<circle class="st37" cx="1097.19" cy="601.35" r="0.48"/>
			<circle class="st37" cx="1092.19" cy="599.35" r="0.48"/>
			<circle class="st37" cx="1104.19" cy="597.35" r="0.48"/>
			<circle class="st37" cx="1096.19" cy="606.35" r="0.48"/>
			<circle class="st37" cx="1100.95" cy="601.11" r="0.24"/>
			<circle class="st37" cx="1092.95" cy="595.11" r="0.24"/>
			<circle class="st37" cx="1096.95" cy="597.11" r="0.24"/>
			<circle class="st37" cx="1104.95" cy="602.11" r="0.24"/>
			<circle class="st37" cx="1101.95" cy="594.11" r="0.24"/>
			<circle class="st37" cx="1090.95" cy="601.11" r="0.24"/>
		</g>
		<path id="mercury-highlight-ring" class="st4" d="M1098.2,590.78c-4.97,0-9,4.03-9,9s4.03,9,9,9c4.97,0,9-4.03,9-9
			S1103.17,590.78,1098.2,590.78z M1098.2,608.28c-4.69,0-8.5-3.81-8.5-8.5s3.81-8.5,8.5-8.5c4.69,0,8.5,3.81,8.5,8.5
			S1102.89,608.28,1098.2,608.28z"/>
	</g>
</g>
</svg>
